<svg width="16" height="14" viewBox="0 0 20 14" fill="none" xmlns="http://www.w3.org/2000/svg">
<path d="M14.4 0H1.6C0.72 0 0.00799999 0.7875 0.00799999 1.75L0 12.25C0 13.2125 0.72 14 1.6 14H14.4C15.28 14 16 13.2125 16 12.25V1.75C16 0.7875 15.28 0 14.4 0ZM14.08 3.71875L8.424 7.58625C8.168 7.76125 7.832 7.76125 7.576 7.58625L1.92 3.71875C1.83978 3.6695 1.76954 3.60295 1.71351 3.52315C1.65749 3.44334 1.61685 3.35193 1.59406 3.25445C1.57127 3.15697 1.5668 3.05544 1.58093 2.95602C1.59505 2.85659 1.62747 2.76134 1.67623 2.67601C1.72498 2.59069 1.78906 2.51707 1.86458 2.45962C1.9401 2.40217 2.0255 2.36207 2.1156 2.34176C2.2057 2.32145 2.29863 2.32135 2.38876 2.34145C2.4789 2.36156 2.56437 2.40147 2.64 2.45875L8 6.125L13.36 2.45875C13.4356 2.40147 13.5211 2.36156 13.6112 2.34145C13.7014 2.32135 13.7943 2.32145 13.8844 2.34176C13.9745 2.36207 14.0599 2.40217 14.1354 2.45962C14.2109 2.51707 14.275 2.59069 14.3238 2.67601C14.3725 2.76134 14.405 2.85659 14.4191 2.95602C14.4332 3.05544 14.4287 3.15697 14.4059 3.25445C14.3832 3.35193 14.3425 3.44334 14.2865 3.52315C14.2305 3.60295 14.1602 3.6695 14.08 3.71875Z" fill="#FF6B00"/>
</svg>
