<svg width="25" height="25" viewBox="0 0 25 25" fill="none" xmlns="http://www.w3.org/2000/svg">
<path d="M15.9722 20C15 20 14.1782 19.6979 13.5069 19.0937C12.8356 18.4896 12.5 17.75 12.5 16.875C12.5 16 12.8356 15.2604 13.5069 14.6563C14.1782 14.0521 15 13.75 15.9722 13.75C16.9444 13.75 17.7662 14.0521 18.4375 14.6563C19.1088 15.2604 19.4444 16 19.4444 16.875C19.4444 17.75 19.1088 18.4896 18.4375 19.0937C17.7662 19.6979 16.9444 20 15.9722 20ZM2.77778 25C2.01389 25 1.36019 24.7554 0.816667 24.2662C0.273148 23.7771 0.000925926 23.1883 0 22.5V5C0 4.3125 0.272222 3.72417 0.816667 3.235C1.36111 2.74584 2.01481 2.50084 2.77778 2.5H4.16667V1.25C4.16667 0.895837 4.3 0.599171 4.56667 0.360004C4.83333 0.120838 5.16296 0.000837643 5.55555 4.31034e-06C5.94815 -0.000829023 6.27824 0.119171 6.54583 0.360004C6.81342 0.600838 6.9463 0.897504 6.94444 1.25V2.5H18.0556V1.25C18.0556 0.895837 18.1889 0.599171 18.4556 0.360004C18.7222 0.120838 19.0518 0.000837643 19.4444 4.31034e-06C19.837 -0.000829023 20.1671 0.119171 20.4347 0.360004C20.7023 0.600838 20.8352 0.897504 20.8333 1.25V2.5H22.2222C22.9861 2.5 23.6403 2.745 24.1847 3.235C24.7292 3.725 25.0009 4.31334 25 5V22.5C25 23.1875 24.7282 23.7762 24.1847 24.2662C23.6412 24.7562 22.987 25.0008 22.2222 25H2.77778ZM2.77778 22.5H22.2222V10H2.77778V22.5Z" fill="#FF6B00"/>
</svg>
