<svg width="25" height="25" viewBox="0 0 25 25" fill="none" xmlns="http://www.w3.org/2000/svg">
<path fill-rule="evenodd" clip-rule="evenodd" d="M14.0348 0.562349C13.596 0.19788 13.0559 0 12.4999 0C11.9439 0 11.4038 0.19788 10.9649 0.562349L0.48512 9.26339C-0.454861 10.0468 0.0626284 11.6548 1.25385 11.6548H2.61883L3.64381 22.5965C3.70549 23.2551 3.99418 23.8658 4.45383 24.3099C4.91348 24.754 5.51131 25 6.13126 25H18.8685C19.4884 25 20.0863 24.754 20.5459 24.3099C21.0056 23.8658 21.2943 23.2551 21.3559 22.5965L22.3809 11.6548H23.7459C24.9359 11.6548 25.4559 10.0468 24.5146 9.26473L14.0348 0.562349ZM4.99503 10.2002C4.97894 10.0228 4.92973 9.85063 4.8503 9.69385C4.77086 9.53708 4.66282 9.39888 4.53254 9.28741L12.4999 2.66955L20.4672 9.28608C20.3369 9.39754 20.2289 9.53574 20.1495 9.69252C20.07 9.84929 20.0208 10.0215 20.0047 10.1989L18.8685 22.331H6.13126L4.99503 10.2002ZM10.6249 14.3239C10.6249 13.793 10.8225 13.2838 11.1741 12.9084C11.5257 12.533 12.0026 12.3221 12.4999 12.3221C12.9971 12.3221 13.4741 12.533 13.8257 12.9084C14.1773 13.2838 14.3748 13.793 14.3748 14.3239C14.3748 14.8548 14.1773 15.3639 13.8257 15.7393C13.4741 16.1147 12.9971 16.3256 12.4999 16.3256C12.0026 16.3256 11.5257 16.1147 11.1741 15.7393C10.8225 15.3639 10.6249 14.8548 10.6249 14.3239ZM12.4999 9.65307C11.3396 9.65307 10.2268 10.1452 9.40635 11.0211C8.58589 11.8971 8.12497 13.0851 8.12497 14.3239C8.12497 15.5626 8.58589 16.7507 9.40635 17.6266C10.2268 18.5026 11.3396 18.9947 12.4999 18.9947C13.6602 18.9947 14.773 18.5026 15.5934 17.6266C16.4139 16.7507 16.8748 15.5626 16.8748 14.3239C16.8748 13.0851 16.4139 11.8971 15.5934 11.0211C14.773 10.1452 13.6602 9.65307 12.4999 9.65307Z" fill="#212529"/>
</svg>
