<svg width="24" height="24" viewBox="0 0 24 24" fill="none" xmlns="http://www.w3.org/2000/svg">
<path d="M11.83 5C12.39 5 12.95 5.35 13.37 6.06L19.28 15.91C20.14 17.33 19.48 18.49 17.83 18.49H5.83C4.18 18.49 3.52 17.33 4.37 15.92L10.28 6.07C10.71 5.35 11.27 5 11.83 5ZM11.83 3C10.53 3 9.35 3.74 8.57 5.03L2.66 14.89C2.22 15.63 2 16.39 2 17.12C2 17.68 2.14 18.23 2.42 18.72C3.06 19.84 4.3 20.49 5.83 20.49H17.83C19.36 20.49 20.6 19.84 21.24 18.72C21.53 18.21 21.67 17.65 21.66 17.07C21.65 16.36 21.43 15.61 21 14.89L15.09 5.04C14.31 3.74 13.13 3 11.83 3ZM13.33 16.24C13.33 16.24 12.62 16.6 12.26 16.42C11.9 16.24 11.83 15.88 12.03 15.27L12.44 14.05C12.84 12.83 12.32 11.97 11.36 11.92C10.1 11.85 9.34 12.75 9.34 12.75C9.34 12.75 10.05 12.39 10.41 12.57C10.77 12.75 10.84 13.11 10.64 13.72L10.23 14.94C9.83 16.16 10.35 17.01 11.31 17.07C12.57 17.13 13.33 16.24 13.33 16.24Z" fill="#DE2020"/>
<path d="M11.9992 11.2992C12.7172 11.2992 13.2992 10.7172 13.2992 9.99922C13.2992 9.28125 12.7172 8.69922 11.9992 8.69922C11.2812 8.69922 10.6992 9.28125 10.6992 9.99922C10.6992 10.7172 11.2812 11.2992 11.9992 11.2992Z" fill="#DE2020"/>
</svg>
