<svg width="19" height="19" viewBox="0 0 19 19" fill="none" xmlns="http://www.w3.org/2000/svg">
<path d="M16.8 3C16.8 2.20435 16.4839 1.44129 15.9213 0.87868C15.3587 0.316071 14.5957 0 13.8 0H3C2.20435 0 1.44129 0.316071 0.87868 0.87868C0.316071 1.44129 0 2.20435 0 3V13.8C0 14.5957 0.316071 15.3587 0.87868 15.9213C1.44129 16.4839 2.20435 16.8 3 16.8H4.5C4.49967 16.1945 4.7029 15.6064 5.07702 15.1303C5.45115 14.6542 5.97447 14.3177 6.56289 14.1748C7.15131 14.0319 7.77069 14.091 8.3215 14.3425C8.87232 14.594 9.3226 15.0234 9.6 15.5616C9.82714 15.1209 10.1713 14.7512 10.5946 14.4931C11.018 14.2351 11.5042 14.0985 12 14.0985C12.4958 14.0985 12.982 14.2351 13.4054 14.4931C13.8287 14.7512 14.1729 15.1209 14.4 15.5616C14.6262 15.1233 14.9682 14.7554 15.3887 14.4977C15.8093 14.24 16.2924 14.1025 16.7856 14.1C16.7952 14.0008 16.8 13.9008 16.8 13.8V3ZM3.6 4.5C3.6 4.0032 3.9792 3.6 4.4472 3.6H12.3528C12.8208 3.6 13.2 4.0032 13.2 4.5C13.2 4.9968 12.8208 5.4 12.3528 5.4H4.4472C3.9792 5.4 3.6 4.9968 3.6 4.5ZM3.6 8.1C3.6 7.6032 3.9792 7.2 4.4472 7.2H8.7528C9.2208 7.2 9.6 7.6032 9.6 8.1C9.6 8.5968 9.2208 9 8.7528 9H4.4472C3.9792 9 3.6 8.5968 3.6 8.1ZM4.4472 10.8H12.3528C12.8208 10.8 13.2 11.2032 13.2 11.7C13.2 12.1968 12.8208 12.6 12.3528 12.6H4.4472C3.9792 12.6 3.6 12.1968 3.6 11.7C3.6 11.2032 3.9792 10.8 4.4472 10.8ZM8.7 16.8C8.7 17.1978 8.54197 17.5794 8.26066 17.8607C7.97936 18.142 7.59783 18.3 7.2 18.3C6.80218 18.3 6.42064 18.142 6.13934 17.8607C5.85804 17.5794 5.7 17.1978 5.7 16.8C5.7 16.4022 5.85804 16.0206 6.13934 15.7393C6.42064 15.458 6.80218 15.3 7.2 15.3C7.59783 15.3 7.97936 15.458 8.26066 15.7393C8.54197 16.0206 8.7 16.4022 8.7 16.8ZM12 18.3C12.3978 18.3 12.7794 18.142 13.0607 17.8607C13.342 17.5794 13.5 17.1978 13.5 16.8C13.5 16.4022 13.342 16.0206 13.0607 15.7393C12.7794 15.458 12.3978 15.3 12 15.3C11.6022 15.3 11.2206 15.458 10.9393 15.7393C10.658 16.0206 10.5 16.4022 10.5 16.8C10.5 17.1978 10.658 17.5794 10.9393 17.8607C11.2206 18.142 11.6022 18.3 12 18.3ZM16.8 18.3C17.1978 18.3 17.5794 18.142 17.8607 17.8607C18.142 17.5794 18.3 17.1978 18.3 16.8C18.3 16.4022 18.142 16.0206 17.8607 15.7393C17.5794 15.458 17.1978 15.3 16.8 15.3C16.4022 15.3 16.0206 15.458 15.7393 15.7393C15.458 16.0206 15.3 16.4022 15.3 16.8C15.3 17.1978 15.458 17.5794 15.7393 17.8607C16.0206 18.142 16.4022 18.3 16.8 18.3Z" fill="#F56D1E"/>
</svg>
